<?xml version="1.0" standalone="no"?>
<!DOCTYPE svg PUBLIC "-//W3C//DTD SVG 20010904//EN"
 "http://www.w3.org/TR/2001/REC-SVG-20010904/DTD/svg10.dtd">
<svg version="1.0" xmlns="http://www.w3.org/2000/svg"
 width="3192.000000pt" height="3192.000000pt" viewBox="0 0 3192.000000 3192.000000"
 preserveAspectRatio="xMidYMid meet">

<g transform="translate(0.000000,3192.000000) scale(0.100000,-0.100000)"
fill="#000000" stroke="none">
<path d="M15892 27938 c-131 -138 -646 -659 -1597 -1614 -352 -353 -1367
-1373 -2255 -2266 -1938 -1948 -2208 -2216 -2263 -2246 -39 -21 -50 -23 -167
-18 -259 11 -782 16 -1980 17 -679 1 -1241 1 -1247 0 -7 -1 -19 -11 -27 -24
-13 -19 -14 -60 -5 -302 11 -307 11 -3677 1 -5315 -4 -553 -6 -1642 -5 -2420
3 -2984 3 -3942 -1 -3949 -3 -4 9 -16 26 -26 30 -17 107 -18 1742 -21 1142 -3
1712 -7 1714 -14 2 -5 15 -10 29 -10 40 0 59 -17 351 -313 111 -113 202 -212
202 -220 0 -8 9 -17 20 -20 11 -3 20 -12 20 -21 0 -9 6 -16 13 -16 18 0 107
-90 107 -107 0 -7 6 -13 14 -13 18 0 106 -89 106 -107 0 -7 6 -13 14 -13 8 0
18 -9 21 -20 3 -11 12 -20 19 -20 15 0 100 -88 109 -113 4 -9 10 -16 14 -15
14 4 103 -85 103 -102 0 -10 9 -20 20 -23 11 -3 20 -12 20 -21 0 -9 8 -16 18
-16 9 -1 26 -12 37 -27 11 -14 30 -35 43 -46 12 -11 22 -27 22 -34 0 -7 5 -13
12 -13 6 0 18 -7 27 -15 9 -8 31 -27 49 -41 17 -14 32 -31 32 -37 0 -7 9 -18
20 -25 11 -7 20 -19 20 -27 0 -8 6 -15 13 -15 7 0 24 -11 37 -25 14 -14 35
-35 48 -47 12 -12 22 -28 22 -35 0 -7 4 -13 9 -13 14 0 151 -135 151 -149 0
-6 6 -11 13 -11 7 0 24 -11 37 -25 14 -14 35 -35 48 -47 12 -12 22 -28 22 -35
0 -7 7 -13 15 -13 9 0 18 -7 21 -15 4 -8 11 -15 18 -15 6 0 22 -14 36 -32 14
-17 35 -41 48 -53 12 -12 22 -27 22 -34 0 -6 6 -11 13 -11 6 0 30 -21 52 -47
47 -55 100 -108 144 -143 17 -14 31 -28 31 -33 0 -4 14 -20 30 -35 87 -78 130
-121 130 -130 0 -6 9 -14 20 -17 11 -3 20 -13 20 -21 0 -8 5 -14 11 -14 15 0
69 -52 69 -67 0 -7 7 -13 16 -13 9 0 18 -9 21 -20 3 -10 14 -22 24 -25 10 -4
19 -11 19 -16 0 -5 4 -9 10 -9 14 0 70 -60 70 -76 0 -7 9 -16 20 -19 11 -3 20
-13 20 -21 0 -8 5 -14 10 -14 17 0 70 -43 70 -57 0 -7 9 -17 20 -23 11 -6 20
-17 20 -25 0 -8 6 -15 13 -15 19 0 107 -85 107 -103 0 -10 7 -17 15 -17 9 0
18 -7 21 -15 4 -8 11 -15 18 -15 10 0 42 -28 87 -78 9 -9 19 -25 22 -35 4 -9
10 -16 15 -15 5 2 31 -18 58 -44 27 -26 54 -51 59 -56 6 -5 145 -142 310 -304
165 -162 371 -364 459 -449 87 -85 170 -167 185 -183 14 -15 84 -85 154 -155
194 -191 1310 -1306 1324 -1322 6 -8 34 -34 62 -59 28 -24 51 -50 51 -57 0 -7
7 -13 16 -13 9 0 18 -9 21 -20 3 -11 9 -20 13 -20 11 0 100 -87 100 -97 0 -4
27 -33 60 -63 33 -30 60 -59 60 -64 0 -9 59 -66 67 -66 10 0 50 24 71 43 26
24 30 12 5 -15 -9 -10 -13 -21 -9 -25 4 -4 145 133 314 306 169 172 1072 1079
2007 2016 1581 1585 2883 2892 3396 3411 259 262 347 344 370 344 10 0 21 5
24 10 4 6 10 8 14 6 16 -10 1946 -18 1971 -8 14 5 34 6 46 2 11 -4 40 -9 65
-11 l44 -4 -3 35 c-2 19 -9 37 -15 39 -11 3 -300 291 -379 378 -21 23 -38 46
-38 52 0 6 -5 11 -11 11 -14 0 -45 33 -79 83 -14 20 -28 37 -32 37 -4 0 -19
11 -34 25 -15 14 -31 25 -35 25 -5 0 -9 5 -9 10 0 6 -33 45 -72 87 -147 154
-366 377 -467 476 -58 56 -127 126 -155 156 -63 68 -210 214 -262 261 -21 20
-51 49 -65 65 -14 17 -41 44 -60 62 -19 17 -52 51 -74 75 -22 24 -53 52 -69
63 -16 11 -41 33 -55 50 -31 35 -212 215 -340 338 -50 48 -91 91 -91 95 0 9
-177 182 -185 182 -12 0 -143 134 -139 142 3 4 0 8 -7 8 -13 0 -80 68 -106
108 -9 12 -20 22 -25 22 -10 0 -138 125 -138 136 0 4 -82 89 -182 189 -101
100 -195 195 -209 211 -53 58 -230 224 -239 224 -6 0 -10 5 -10 10 0 14 -175
190 -189 190 -6 0 -11 7 -11 15 0 9 -8 19 -17 22 -23 8 -98 83 -106 106 -3 9
-13 17 -22 17 -8 0 -15 7 -15 15 0 9 -7 18 -16 22 -17 6 -64 50 -64 59 0 8
-57 64 -66 64 -8 0 -214 209 -234 239 -8 12 -39 40 -68 62 -58 45 -242 223
-242 236 0 5 -30 17 -67 28 -64 19 -98 20 -636 20 -553 0 -569 -1 -583 -20
-12 -16 -14 -290 -14 -1937 0 -1679 -1 -1922 -14 -1947 -9 -16 -41 -53 -72
-82 -31 -30 -102 -101 -157 -159 -344 -355 -1069 -1063 -1358 -1324 -31 -28
-106 -98 -168 -156 -62 -58 -119 -108 -126 -113 -7 -4 -25 -3 -39 3 l-26 9 -3
948 c-6 2183 -2 8611 6 8606 5 -3 6 252 2 573 -4 319 -8 1283 -9 2144 -3 1380
-5 1570 -19 1606 -9 24 -12 47 -7 54 6 10 10 7 15 -12 5 -19 11 -24 26 -21 10
3 16 9 13 14 -3 5 -3 9 -1 9 2 0 155 -150 339 -332 185 -183 532 -526 773
-763 476 -468 487 -479 527 -524 15 -17 30 -31 34 -31 12 0 64 -55 64 -67 0
-7 5 -12 12 -11 7 2 17 -7 23 -19 5 -13 16 -23 23 -23 7 0 15 -7 18 -15 4 -8
12 -15 19 -15 13 0 65 -58 65 -73 0 -6 7 -15 17 -22 21 -16 31 -90 32 -245 1
-69 5 -131 10 -139 10 -15 118 -16 3361 -26 877 -2 1651 -7 1720 -9 69 -3 339
-8 600 -11 284 -3 479 -10 484 -15 7 -7 6 -10 -2 -10 -6 0 1 -20 17 -45 l29
-45 -6 -163 c-7 -217 -7 -580 0 -642 5 -37 11 -2116 8 -2712 0 -41 -4 -62 -11
-60 -6 1 -14 -4 -17 -12 -3 -8 0 -11 6 -7 8 5 8 -3 0 -25 -11 -32 -50 -73
-634 -674 -161 -165 -318 -327 -350 -360 -103 -106 -498 -505 -544 -549 -25
-24 -59 -59 -76 -77 -17 -19 -86 -87 -153 -152 -124 -120 -140 -148 -106 -177
8 -7 15 -19 15 -26 0 -8 7 -14 16 -14 9 0 18 -9 21 -21 4 -12 11 -18 20 -15 9
4 17 -1 20 -14 3 -11 10 -20 16 -20 13 0 15 -2 142 -131 50 -50 90 -96 90
-102 1 -7 6 -11 12 -10 12 3 288 -268 412 -403 35 -38 70 -73 78 -77 10 -6 51
29 147 125 249 248 314 309 318 298 2 -7 27 13 56 44 29 31 50 60 47 66 -3 5
0 7 7 5 7 -3 38 20 68 52 41 42 47 52 25 39 -16 -10 35 47 115 128 80 80 149
146 154 146 6 0 -8 -19 -29 -42 l-40 -43 47 44 c26 24 45 48 42 53 -7 11 55
72 64 64 9 -10 111 95 106 108 -2 6 13 27 33 46 37 35 38 35 9 3 -16 -18 -27
-35 -25 -38 3 -2 92 84 199 193 107 108 180 183 161 167 -19 -17 -47 -43 -63
-59 -15 -16 -30 -27 -33 -25 -5 5 696 714 800 809 l70 64 2 2883 c1 1585 -1
2882 -5 2881 -4 -1 -14 2 -22 5 -8 3 -782 8 -1720 10 -1658 5 -1706 6 -1753
24 -27 11 -52 25 -56 31 -11 19 -1011 1020 -1792 1795 -398 395 -752 746 -786
780 -34 34 -65 66 -70 70 -4 4 -104 102 -222 218 -118 116 -225 217 -237 226
-13 8 -24 19 -24 24 0 11 -88 99 -98 99 -4 0 -35 28 -68 63 -33 34 -73 74 -89
88 -17 15 -51 50 -77 78 -26 28 -50 51 -53 51 -6 0 -34 29 -87 89 -15 17 -30
31 -33 31 -3 0 -27 23 -53 51 -26 29 -96 99 -155 158 -60 58 -123 121 -140
140 -18 19 -45 46 -61 60 -16 14 -43 41 -60 59 -17 18 -53 54 -80 80 -134 128
-643 632 -924 916 -378 381 -352 354 -352 366 0 6 -6 10 -13 10 -7 0 -172 161
-368 358 -386 388 -374 376 -407 387 -21 6 -38 -9 -140 -117z m88 -1859 c0 -7
10 -9 24 -5 14 3 28 1 31 -4 4 -6 12 -9 20 -8 12 3 50 -32 249 -227 51 -49
139 -133 196 -185 58 -52 110 -99 115 -105 6 -6 35 -31 65 -55 30 -25 64 -54
75 -65 11 -12 43 -38 70 -60 28 -22 59 -48 71 -60 11 -11 47 -39 80 -63 32
-23 81 -62 107 -86 27 -25 70 -59 97 -78 27 -18 53 -43 59 -55 6 -13 17 -23
25 -23 16 0 170 -164 278 -295 94 -115 96 -118 140 -161 20 -20 49 -54 65 -76
15 -22 52 -66 83 -98 30 -31 152 -158 270 -281 118 -123 379 -389 580 -592
201 -203 419 -424 485 -491 66 -67 134 -137 151 -156 17 -19 44 -47 60 -62 16
-15 92 -94 169 -174 77 -81 203 -211 280 -290 77 -79 158 -164 180 -191 65
-77 178 -196 205 -218 28 -21 30 -23 180 -186 52 -56 131 -139 176 -183 79
-80 107 -127 82 -142 -19 -12 -66 -5 -96 13 -101 62 -195 128 -244 171 -31 27
-83 70 -115 95 -32 25 -92 80 -133 122 -41 43 -97 95 -125 117 -79 63 -200
174 -325 298 -64 63 -154 150 -201 193 -46 43 -91 84 -100 92 -9 8 -19 15 -23
15 -4 0 -55 48 -115 108 -136 135 -437 428 -659 642 -179 171 -595 585 -717
712 -38 41 -89 91 -112 113 -23 22 -147 146 -276 275 -222 224 -315 314 -403
389 -21 18 -71 63 -109 100 -99 93 -139 128 -227 199 -43 35 -81 69 -85 75 -5
7 -37 37 -73 66 -36 30 -67 57 -70 61 -3 3 -32 28 -65 55 -33 26 -80 67 -105
91 -25 23 -67 59 -95 80 -52 39 -75 57 -103 87 -10 10 -31 17 -52 17 -33 0
-47 -11 -157 -122 -66 -68 -194 -193 -284 -278 -359 -339 -303 -285 -1230
-1200 -1064 -1050 -1425 -1404 -1644 -1606 -77 -71 -169 -156 -205 -190 -111
-104 -354 -313 -475 -408 -28 -22 -58 -48 -67 -57 -10 -10 -54 -46 -98 -81
-84 -65 -97 -75 -190 -143 -30 -22 -60 -44 -66 -50 -88 -78 -134 -95 -134 -49
0 26 49 124 62 124 18 0 238 246 238 267 0 4 9 14 20 21 12 7 18 17 15 23 -4
5 -2 8 2 7 10 -3 73 53 73 64 0 5 8 16 18 26 9 10 57 63 107 118 49 54 160
171 246 259 86 88 172 178 190 200 19 22 140 148 270 280 130 132 263 269 295
305 94 102 892 908 941 950 10 8 68 65 128 127 167 169 1265 1270 1594 1598
160 159 291 295 291 302 0 7 5 13 10 13 6 0 10 -5 10 -11z m-980 -3307 c0 -4
-6 -14 -12 -20 -10 -10 -10 -15 2 -22 21 -13 30 -12 30 3 1 8 4 7 9 -3 16 -27
29 -1196 32 -2845 4 -1637 -6 -10756 -10 -10884 l-6 -144 -32 -2 c-28 -2 -48
14 -210 172 -259 253 -375 365 -409 392 -45 36 -281 260 -433 411 -210 208
-380 370 -389 370 -4 0 -15 8 -23 17 -9 10 -32 31 -52 47 -20 16 -35 34 -34
40 1 6 -6 10 -15 8 -10 -2 -19 2 -19 8 -1 5 -2 16 -3 23 -1 6 -8 11 -15 9 -19
-4 -61 37 -61 60 0 10 -7 18 -15 18 -8 0 -15 4 -15 9 0 11 -13 24 -71 71 -24
19 -54 45 -67 58 -13 12 -49 44 -80 70 -83 69 -112 98 -112 110 0 6 -5 12 -12
14 -9 3 -13 438 -16 1829 -3 1214 -8 1828 -14 1837 -6 6 -18 12 -27 13 -9 1
-5 4 9 9 17 5 -1 8 -55 8 -67 -1 -73 -2 -35 -8 25 -4 -673 -6 -1550 -4 -877 1
-1627 -1 -1667 -5 -40 -3 -77 -11 -82 -16 -6 -6 -12 -595 -16 -1640 -4 -896
-9 -1638 -11 -1648 -3 -9 -9 -15 -14 -12 -4 3 -13 -2 -20 -10 -7 -8 -9 -15 -4
-15 5 0 2 -5 -6 -10 -8 -6 -31 -8 -50 -5 -36 5 -888 14 -1473 15 -307 0 -329
2 -360 20 l-32 20 0 4547 c0 2537 -4 4567 -9 4591 -7 35 -6 41 6 37 8 -3 26 6
41 21 l27 27 123 -7 c166 -8 1477 -9 1602 -1 l100 7 40 -36 40 -37 -4 -1909
-3 -1908 28 -19 c27 -17 96 -18 1684 -23 947 -3 1467 -7 1215 -10 l-440 -5
465 -2 c267 -1 456 2 445 7 -20 8 -19 9 1 9 49 2 45 -181 57 2986 1 341 -1
805 -6 1031 -7 365 -6 412 8 418 8 3 15 12 15 19 0 8 35 43 77 78 43 35 94 80
113 99 20 19 81 76 136 127 168 155 179 166 164 158 -24 -13 -98 -74 -175
-145 -39 -36 -52 -45 -30 -21 43 47 250 234 294 265 14 11 4 -5 -24 -34 l-50
-53 60 48 c53 42 99 81 213 183 36 32 41 45 15 35 -10 -4 6 16 36 43 71 64 89
76 102 69 5 -4 20 4 33 17 12 12 55 49 95 82 45 36 68 61 61 66 -7 4 1 18 25
38 44 39 57 42 24 5 -30 -33 -8 -21 56 31 128 104 324 298 263 260 -7 -4 -8
-3 -4 4 4 6 13 9 20 6 16 -6 108 94 99 109 -3 6 -1 7 5 3 11 -7 251 220 292
277 l23 32 -24 -20 c-13 -11 -29 -27 -36 -35 -6 -8 -15 -11 -20 -7 -4 5 2 16
13 25 11 9 46 47 78 85 54 62 76 79 76 59z m-240 -245 c0 -2 -12 -14 -27 -28
l-28 -24 24 28 c23 25 31 32 31 24z m-1015 -935 c-6 -4 -26 -21 -45 -37 l-35
-30 34 38 c19 20 39 37 45 37 6 0 6 -3 1 -8z m-645 -588 c-25 -25 -54 -50 -65
-55 -11 -6 6 15 38 45 70 67 89 75 27 10z m-100 -89 c-7 -8 -17 -15 -22 -15
-6 0 -5 7 2 15 7 8 17 15 22 15 6 0 5 -7 -2 -15z m11939 -5798 c-2 -1 -13 -9
-24 -17 -19 -14 -19 -14 -6 3 7 9 18 17 24 17 6 0 8 -1 6 -3z m-259 -260 c0
-1 -22 -25 -50 -52 -60 -59 -66 -52 -9 10 35 38 59 55 59 42z m-13138 -4489
c20 -18 43 -37 51 -43 83 -57 140 -100 182 -136 28 -25 70 -61 95 -80 42 -34
69 -59 221 -205 31 -30 61 -54 67 -54 9 0 61 -48 244 -222 36 -35 101 -94 143
-133 43 -38 99 -90 125 -115 25 -25 79 -74 120 -110 94 -84 128 -115 312 -291
84 -80 232 -220 328 -310 96 -90 225 -213 287 -274 61 -60 134 -130 162 -155
28 -25 51 -51 51 -57 0 -7 4 -13 9 -13 9 0 14 -5 137 -115 91 -82 375 -357
413 -400 14 -16 41 -43 60 -60 77 -68 166 -153 205 -195 71 -77 224 -222 242
-230 6 -3 105 -96 220 -207 115 -112 223 -215 240 -230 16 -16 40 -43 53 -60
12 -18 29 -33 37 -33 8 0 14 -7 14 -15 0 -9 8 -19 18 -22 20 -8 102 -91 102
-104 0 -5 11 -15 25 -21 14 -6 25 -14 25 -18 0 -4 10 -6 23 -6 16 1 22 -4 21
-20 0 -13 6 -21 15 -20 10 1 16 -7 16 -19 0 -11 10 -24 23 -30 12 -5 22 -16
22 -23 0 -8 9 -16 20 -19 11 -3 20 -10 20 -17 0 -6 28 -40 61 -74 54 -56 66
-63 95 -60 29 3 100 69 582 548 521 518 838 829 1113 1093 68 66 255 248 414
405 266 263 638 622 825 797 136 127 247 240 253 257 4 10 28 33 54 50 44 31
249 205 320 272 18 17 33 37 33 44 0 6 5 11 10 10 6 -2 16 8 23 21 6 14 73 71
147 128 74 57 136 110 138 118 2 8 10 15 18 15 8 0 19 11 24 25 5 14 12 25 15
25 4 0 3 -6 -1 -12 -5 -10 -3 -10 7 0 8 7 14 18 14 25 0 7 7 12 15 12 8 0 16
4 17 9 2 13 56 66 68 66 14 0 59 35 114 88 24 23 47 42 52 42 4 0 10 8 14 18
3 9 38 44 77 77 39 33 79 69 89 79 16 17 19 17 19 4 0 -9 9 -20 20 -23 11 -3
20 -12 20 -19 0 -12 -53 -99 -78 -126 -7 -8 -32 -41 -56 -72 -24 -31 -57 -71
-73 -90 -47 -50 -135 -150 -158 -177 -39 -47 -171 -195 -290 -325 -65 -72
-139 -153 -164 -181 -45 -49 -227 -244 -391 -419 -106 -112 -754 -769 -1330
-1349 -929 -934 -1545 -1563 -1829 -1869 -51 -55 -99 -88 -126 -88 -20 0 -65
48 -160 170 -19 25 -74 82 -123 127 -49 46 -219 211 -378 368 -400 395 -421
416 -494 492 -36 38 -110 111 -165 164 -55 52 -129 126 -165 163 -36 38 -85
85 -110 105 -24 20 -108 99 -186 176 -168 165 -286 279 -332 318 -21 18 -31
34 -28 44 4 11 2 13 -9 9 -14 -5 -40 26 -29 37 3 3 -2 4 -10 4 -21 -3 -278
253 -271 270 3 8 0 11 -6 7 -13 -8 -683 662 -674 676 3 5 0 8 -7 5 -7 -3 -35
20 -63 50 -27 31 -77 84 -110 118 -33 35 -78 84 -101 108 -22 25 -48 48 -57
52 -9 3 -17 13 -17 22 0 8 -7 15 -15 15 -8 0 -19 9 -25 20 -6 11 -36 46 -66
76 -29 30 -54 58 -54 62 0 4 -62 71 -138 149 -240 247 -296 306 -362 383 -57
66 -215 244 -247 277 -6 7 -21 28 -33 48 -12 19 -25 35 -30 35 -4 0 -17 15
-29 33 -11 17 -39 57 -61 87 -22 30 -40 61 -40 68 0 25 56 12 92 -20z m4496
-4150 c-6 -18 -28 -21 -28 -4 0 9 7 16 16 16 9 0 14 -5 12 -12z"/>
<path d="M13880 21704 c-13 -13 -20 -24 -14 -24 6 0 21 11 34 25 30 32 13 32
-20 -1z"/>
<path d="M13826 21655 c-11 -8 -15 -15 -9 -15 6 0 16 7 23 15 16 19 11 19 -14
0z"/>
<path d="M9708 16413 c23 -2 61 -2 85 0 23 2 4 4 -43 4 -47 0 -66 -2 -42 -4z"/>
<path d="M12984 14320 c0 -52 1 -74 3 -47 2 26 2 68 0 95 -2 26 -3 4 -3 -48z"/>
<path d="M18530 20341 c-25 -4 398 -9 940 -12 542 -2 989 -1 994 3 6 5 -120 8
-280 9 -159 0 -586 2 -949 3 -363 2 -680 0 -705 -3z"/>
<path d="M20480 20333 c0 -5 483 -8 1073 -9 589 0 1016 2 947 6 -191 9 -2020
12 -2020 3z"/>
<path d="M22638 20323 c7 -3 16 -2 19 1 4 3 -2 6 -13 5 -11 0 -14 -3 -6 -6z"/>
<path d="M18393 18255 l-23 -16 0 -869 c0 -517 4 -879 9 -893 7 -19 19 -26 48
-31 21 -3 819 -7 1773 -8 1652 -3 1737 -2 1763 15 26 17 44 39 119 150 18 27
60 83 94 125 33 42 133 169 222 282 164 208 196 248 220 275 17 19 30 144 27
245 -1 41 -3 217 -4 390 -1 173 -5 321 -9 327 -6 10 -464 14 -2112 19 -1942 5
-2107 4 -2127 -11z"/>
<path d="M19488 16413 c7 -3 16 -2 19 1 4 3 -2 6 -13 5 -11 0 -14 -3 -6 -6z"/>
<path d="M19738 16413 c12 -2 30 -2 40 0 9 3 -1 5 -23 4 -22 0 -30 -2 -17 -4z"/>
<path d="M25149 15323 c-13 -16 -12 -17 4 -4 16 13 21 21 13 21 -2 0 -10 -8
-17 -17z"/>
<path d="M24311 14489 c-29 -28 -50 -53 -48 -55 2 -2 28 21 57 51 30 30 52 55
49 55 -4 0 -30 -23 -58 -51z"/>
<path d="M23724 13898 l-29 -33 33 29 c17 17 32 31 32 33 0 8 -8 1 -36 -29z"/>
<path d="M23641 13817 l-25 -32 32 29 c33 31 37 36 25 35 -5 0 -19 -14 -32
-32z"/>
</g>
</svg>
